<mxfile host="app.diagrams.net" agent="Mozilla/5.0 (X11; Linux x86_64) AppleWebKit/537.36 (KHTML, like Gecko) Chrome/129.0.0.0 Safari/537.36" version="24.7.17">
  <diagram name="Page-1" id="KtvJx_yldb70QBuvJoq5">
    <mxGraphModel dx="1434" dy="688" grid="1" gridSize="10" guides="1" tooltips="1" connect="1" arrows="1" fold="1" page="1" pageScale="1" pageWidth="850" pageHeight="1100" math="0" shadow="0">
      <root>
        <mxCell id="0" />
        <mxCell id="1" parent="0" />
        <mxCell id="HAUtBb3B69CxN1LD46Y--90" value="" style="rounded=0;whiteSpace=wrap;html=1;" vertex="1" parent="1">
          <mxGeometry x="30" y="2480" width="800" height="650" as="geometry" />
        </mxCell>
        <mxCell id="HAUtBb3B69CxN1LD46Y--10" value="" style="rounded=0;whiteSpace=wrap;html=1;" vertex="1" parent="1">
          <mxGeometry x="170" y="120" width="560" height="1120" as="geometry" />
        </mxCell>
        <object label="Player" Player="" placeholders="1" id="HAUtBb3B69CxN1LD46Y--2">
          <mxCell style="shape=umlActor;verticalLabelPosition=bottom;verticalAlign=top;html=1;" vertex="1" parent="1">
            <mxGeometry x="50" y="650" width="30" height="60" as="geometry" />
          </mxCell>
        </object>
        <mxCell id="HAUtBb3B69CxN1LD46Y--3" value="Login" style="ellipse;whiteSpace=wrap;html=1;" vertex="1" parent="1">
          <mxGeometry x="250" y="290" width="140" height="70" as="geometry" />
        </mxCell>
        <mxCell id="HAUtBb3B69CxN1LD46Y--4" value="Get Reward" style="ellipse;whiteSpace=wrap;html=1;" vertex="1" parent="1">
          <mxGeometry x="470" y="440" width="140" height="70" as="geometry" />
        </mxCell>
        <mxCell id="HAUtBb3B69CxN1LD46Y--5" value="Battle" style="ellipse;whiteSpace=wrap;html=1;" vertex="1" parent="1">
          <mxGeometry x="250" y="380" width="140" height="70" as="geometry" />
        </mxCell>
        <mxCell id="HAUtBb3B69CxN1LD46Y--6" value="Upgrade Ship" style="ellipse;whiteSpace=wrap;html=1;" vertex="1" parent="1">
          <mxGeometry x="510" y="770" width="140" height="70" as="geometry" />
        </mxCell>
        <mxCell id="HAUtBb3B69CxN1LD46Y--7" value="Play Daily&amp;nbsp;&lt;div&gt;Missions&lt;/div&gt;" style="ellipse;whiteSpace=wrap;html=1;" vertex="1" parent="1">
          <mxGeometry x="260" y="540" width="140" height="70" as="geometry" />
        </mxCell>
        <mxCell id="HAUtBb3B69CxN1LD46Y--8" value="View other players" style="ellipse;whiteSpace=wrap;html=1;" vertex="1" parent="1">
          <mxGeometry x="260" y="630" width="140" height="70" as="geometry" />
        </mxCell>
        <mxCell id="HAUtBb3B69CxN1LD46Y--9" value="Purchase Ship" style="ellipse;whiteSpace=wrap;html=1;" vertex="1" parent="1">
          <mxGeometry x="260" y="800" width="140" height="70" as="geometry" />
        </mxCell>
        <mxCell id="HAUtBb3B69CxN1LD46Y--11" value="Join Clan" style="ellipse;whiteSpace=wrap;html=1;" vertex="1" parent="1">
          <mxGeometry x="260" y="980" width="140" height="70" as="geometry" />
        </mxCell>
        <mxCell id="HAUtBb3B69CxN1LD46Y--12" value="View Requests" style="ellipse;whiteSpace=wrap;html=1;" vertex="1" parent="1">
          <mxGeometry x="180" y="1110" width="140" height="70" as="geometry" />
        </mxCell>
        <mxCell id="HAUtBb3B69CxN1LD46Y--13" value="View Invites" style="ellipse;whiteSpace=wrap;html=1;" vertex="1" parent="1">
          <mxGeometry x="400" y="1110" width="140" height="70" as="geometry" />
        </mxCell>
        <mxCell id="HAUtBb3B69CxN1LD46Y--14" value="Create Clan" style="ellipse;whiteSpace=wrap;html=1;" vertex="1" parent="1">
          <mxGeometry x="260" y="710" width="140" height="70" as="geometry" />
        </mxCell>
        <mxCell id="HAUtBb3B69CxN1LD46Y--18" value="Modern Warship Game" style="text;html=1;align=center;verticalAlign=middle;whiteSpace=wrap;rounded=0;fontSize=17;" vertex="1" parent="1">
          <mxGeometry x="335" y="140" width="181" height="30" as="geometry" />
        </mxCell>
        <mxCell id="HAUtBb3B69CxN1LD46Y--19" value="View Battle Results" style="ellipse;whiteSpace=wrap;html=1;" vertex="1" parent="1">
          <mxGeometry x="260" y="900" width="140" height="70" as="geometry" />
        </mxCell>
        <mxCell id="HAUtBb3B69CxN1LD46Y--20" value="&lt;div&gt;&lt;br&gt;&lt;/div&gt;Link Account To&amp;nbsp;&lt;span style=&quot;background-color: initial;&quot;&gt;Save Progress&lt;/span&gt;&lt;div&gt;&lt;div&gt;&lt;br&gt;&lt;/div&gt;&lt;/div&gt;" style="ellipse;whiteSpace=wrap;html=1;" vertex="1" parent="1">
          <mxGeometry x="460" y="210" width="140" height="70" as="geometry" />
        </mxCell>
        <mxCell id="HAUtBb3B69CxN1LD46Y--21" value="Read Terms of Use" style="ellipse;whiteSpace=wrap;html=1;" vertex="1" parent="1">
          <mxGeometry x="527.5" y="300" width="140" height="70" as="geometry" />
        </mxCell>
        <mxCell id="HAUtBb3B69CxN1LD46Y--22" value="&amp;lt;&amp;lt;includes&amp;gt;&amp;gt;" style="endArrow=open;endSize=12;dashed=1;html=1;rounded=0;" edge="1" parent="1" source="HAUtBb3B69CxN1LD46Y--5" target="HAUtBb3B69CxN1LD46Y--4">
          <mxGeometry width="160" relative="1" as="geometry">
            <mxPoint x="400" y="490" as="sourcePoint" />
            <mxPoint x="560" y="490" as="targetPoint" />
          </mxGeometry>
        </mxCell>
        <mxCell id="HAUtBb3B69CxN1LD46Y--24" value="&amp;lt;&amp;lt;includes&amp;gt;&amp;gt;" style="endArrow=open;endSize=12;dashed=1;html=1;rounded=0;exitX=0.657;exitY=0.043;exitDx=0;exitDy=0;entryX=0;entryY=0.5;entryDx=0;entryDy=0;exitPerimeter=0;" edge="1" parent="1" source="HAUtBb3B69CxN1LD46Y--7" target="HAUtBb3B69CxN1LD46Y--4">
          <mxGeometry width="160" relative="1" as="geometry">
            <mxPoint x="383" y="618" as="sourcePoint" />
            <mxPoint x="470" y="550" as="targetPoint" />
            <Array as="points" />
          </mxGeometry>
        </mxCell>
        <mxCell id="HAUtBb3B69CxN1LD46Y--25" value="&amp;lt;&amp;lt;extends&amp;gt;&amp;gt;" style="endArrow=open;endSize=12;dashed=1;html=1;rounded=0;" edge="1" parent="1" source="HAUtBb3B69CxN1LD46Y--21" target="HAUtBb3B69CxN1LD46Y--3">
          <mxGeometry width="160" relative="1" as="geometry">
            <mxPoint x="470" y="370" as="sourcePoint" />
            <mxPoint x="630" y="370" as="targetPoint" />
            <Array as="points" />
          </mxGeometry>
        </mxCell>
        <mxCell id="HAUtBb3B69CxN1LD46Y--27" value="&amp;lt;&amp;lt;extends&amp;gt;&amp;gt;" style="endArrow=open;endSize=12;dashed=1;html=1;rounded=0;entryX=1;entryY=0;entryDx=0;entryDy=0;" edge="1" parent="1" source="HAUtBb3B69CxN1LD46Y--20" target="HAUtBb3B69CxN1LD46Y--3">
          <mxGeometry width="160" relative="1" as="geometry">
            <mxPoint x="480" y="380" as="sourcePoint" />
            <mxPoint x="403" y="399" as="targetPoint" />
            <Array as="points" />
          </mxGeometry>
        </mxCell>
        <mxCell id="HAUtBb3B69CxN1LD46Y--28" value="&amp;lt;&amp;lt;extends&amp;gt;&amp;gt;" style="endArrow=open;endSize=12;dashed=1;html=1;rounded=0;exitX=0.029;exitY=0.643;exitDx=0;exitDy=0;entryX=1;entryY=1;entryDx=0;entryDy=0;exitPerimeter=0;" edge="1" parent="1" source="HAUtBb3B69CxN1LD46Y--41" target="HAUtBb3B69CxN1LD46Y--9">
          <mxGeometry width="160" relative="1" as="geometry">
            <mxPoint x="501.05999999999995" y="775.01" as="sourcePoint" />
            <mxPoint x="399.02" y="754.99" as="targetPoint" />
            <Array as="points" />
          </mxGeometry>
        </mxCell>
        <mxCell id="HAUtBb3B69CxN1LD46Y--29" value="" style="endArrow=open;endFill=1;endSize=12;html=1;rounded=0;entryX=0.5;entryY=1;entryDx=0;entryDy=0;" edge="1" parent="1" target="HAUtBb3B69CxN1LD46Y--11">
          <mxGeometry width="160" relative="1" as="geometry">
            <mxPoint x="460" y="1110" as="sourcePoint" />
            <mxPoint x="540" y="890" as="targetPoint" />
            <Array as="points">
              <mxPoint x="470" y="1110" />
              <mxPoint x="470" y="1080" />
              <mxPoint x="350" y="1080" />
              <mxPoint x="330" y="1080" />
            </Array>
          </mxGeometry>
        </mxCell>
        <mxCell id="HAUtBb3B69CxN1LD46Y--31" value="" style="endArrow=open;endFill=1;endSize=12;html=1;rounded=0;entryX=0.5;entryY=1;entryDx=0;entryDy=0;" edge="1" parent="1" target="HAUtBb3B69CxN1LD46Y--11">
          <mxGeometry width="160" relative="1" as="geometry">
            <mxPoint x="230" y="1110" as="sourcePoint" />
            <mxPoint x="306" y="1050" as="targetPoint" />
            <Array as="points">
              <mxPoint x="230" y="1080" />
              <mxPoint x="330" y="1080" />
            </Array>
          </mxGeometry>
        </mxCell>
        <mxCell id="HAUtBb3B69CxN1LD46Y--32" value="" style="endArrow=open;endFill=1;endSize=12;html=1;rounded=0;entryX=0;entryY=0.5;entryDx=0;entryDy=0;exitX=0.8;exitY=0;exitDx=0;exitDy=0;exitPerimeter=0;" edge="1" parent="1" source="HAUtBb3B69CxN1LD46Y--2" target="HAUtBb3B69CxN1LD46Y--3">
          <mxGeometry width="160" relative="1" as="geometry">
            <mxPoint x="80" y="600" as="sourcePoint" />
            <mxPoint x="240" y="600" as="targetPoint" />
          </mxGeometry>
        </mxCell>
        <mxCell id="HAUtBb3B69CxN1LD46Y--33" value="" style="endArrow=open;endFill=1;endSize=12;html=1;rounded=0;entryX=-0.007;entryY=0.643;entryDx=0;entryDy=0;entryPerimeter=0;" edge="1" parent="1" target="HAUtBb3B69CxN1LD46Y--5">
          <mxGeometry width="160" relative="1" as="geometry">
            <mxPoint x="70" y="650" as="sourcePoint" />
            <mxPoint x="270" y="415" as="targetPoint" />
          </mxGeometry>
        </mxCell>
        <mxCell id="HAUtBb3B69CxN1LD46Y--34" value="" style="endArrow=open;endFill=1;endSize=12;html=1;rounded=0;" edge="1" parent="1" target="HAUtBb3B69CxN1LD46Y--7">
          <mxGeometry width="160" relative="1" as="geometry">
            <mxPoint x="70" y="650" as="sourcePoint" />
            <mxPoint x="269" y="515" as="targetPoint" />
          </mxGeometry>
        </mxCell>
        <mxCell id="HAUtBb3B69CxN1LD46Y--35" value="" style="endArrow=open;endFill=1;endSize=12;html=1;rounded=0;entryX=0.021;entryY=0.414;entryDx=0;entryDy=0;entryPerimeter=0;" edge="1" parent="1" target="HAUtBb3B69CxN1LD46Y--9">
          <mxGeometry width="160" relative="1" as="geometry">
            <mxPoint x="73" y="650" as="sourcePoint" />
            <mxPoint x="272" y="612" as="targetPoint" />
          </mxGeometry>
        </mxCell>
        <mxCell id="HAUtBb3B69CxN1LD46Y--36" value="" style="endArrow=open;endFill=1;endSize=12;html=1;rounded=0;entryX=0;entryY=0.5;entryDx=0;entryDy=0;" edge="1" parent="1" target="HAUtBb3B69CxN1LD46Y--8">
          <mxGeometry width="160" relative="1" as="geometry">
            <mxPoint x="70" y="650" as="sourcePoint" />
            <mxPoint x="273" y="679" as="targetPoint" />
          </mxGeometry>
        </mxCell>
        <mxCell id="HAUtBb3B69CxN1LD46Y--37" value="" style="endArrow=open;endFill=1;endSize=12;html=1;rounded=0;" edge="1" parent="1" target="HAUtBb3B69CxN1LD46Y--14">
          <mxGeometry width="160" relative="1" as="geometry">
            <mxPoint x="70" y="650" as="sourcePoint" />
            <mxPoint x="260" y="845" as="targetPoint" />
          </mxGeometry>
        </mxCell>
        <mxCell id="HAUtBb3B69CxN1LD46Y--39" value="" style="endArrow=open;endFill=1;endSize=12;html=1;rounded=0;entryX=0;entryY=0.5;entryDx=0;entryDy=0;" edge="1" parent="1" target="HAUtBb3B69CxN1LD46Y--19">
          <mxGeometry width="160" relative="1" as="geometry">
            <mxPoint x="70" y="657.5" as="sourcePoint" />
            <mxPoint x="260" y="852.5" as="targetPoint" />
          </mxGeometry>
        </mxCell>
        <mxCell id="HAUtBb3B69CxN1LD46Y--40" value="" style="endArrow=open;endFill=1;endSize=12;html=1;rounded=0;entryX=0.036;entryY=0.357;entryDx=0;entryDy=0;entryPerimeter=0;exitX=0.5;exitY=0;exitDx=0;exitDy=0;exitPerimeter=0;" edge="1" parent="1" source="HAUtBb3B69CxN1LD46Y--2" target="HAUtBb3B69CxN1LD46Y--11">
          <mxGeometry width="160" relative="1" as="geometry">
            <mxPoint x="80" y="667.5" as="sourcePoint" />
            <mxPoint x="270" y="945" as="targetPoint" />
          </mxGeometry>
        </mxCell>
        <mxCell id="HAUtBb3B69CxN1LD46Y--41" value="Customize Ship" style="ellipse;whiteSpace=wrap;html=1;" vertex="1" parent="1">
          <mxGeometry x="490" y="850" width="140" height="70" as="geometry" />
        </mxCell>
        <mxCell id="HAUtBb3B69CxN1LD46Y--42" value="&amp;lt;&amp;lt;extends&amp;gt;&amp;gt;" style="endArrow=open;endSize=12;dashed=1;html=1;rounded=0;exitX=0.036;exitY=0.4;exitDx=0;exitDy=0;exitPerimeter=0;entryX=1;entryY=0.5;entryDx=0;entryDy=0;" edge="1" parent="1" source="HAUtBb3B69CxN1LD46Y--6" target="HAUtBb3B69CxN1LD46Y--9">
          <mxGeometry width="160" relative="1" as="geometry">
            <mxPoint x="511" y="699" as="sourcePoint" />
            <mxPoint x="409" y="679" as="targetPoint" />
            <Array as="points" />
          </mxGeometry>
        </mxCell>
        <mxCell id="HAUtBb3B69CxN1LD46Y--43" value="Clan Leader" style="shape=umlActor;verticalLabelPosition=bottom;verticalAlign=top;html=1;" vertex="1" parent="1">
          <mxGeometry x="770" y="460" width="30" height="60" as="geometry" />
        </mxCell>
        <mxCell id="HAUtBb3B69CxN1LD46Y--44" value="" style="endArrow=open;endFill=1;endSize=12;html=1;rounded=0;exitX=0.25;exitY=0.1;exitDx=0;exitDy=0;exitPerimeter=0;entryX=0.9;entryY=0.157;entryDx=0;entryDy=0;entryPerimeter=0;" edge="1" parent="1" source="HAUtBb3B69CxN1LD46Y--43" target="HAUtBb3B69CxN1LD46Y--5">
          <mxGeometry width="160" relative="1" as="geometry">
            <mxPoint x="775.98" y="399.18" as="sourcePoint" />
            <mxPoint x="390" y="480" as="targetPoint" />
            <Array as="points" />
          </mxGeometry>
        </mxCell>
        <mxCell id="HAUtBb3B69CxN1LD46Y--45" value="" style="endArrow=open;endFill=1;endSize=12;html=1;rounded=0;exitX=0.25;exitY=0.1;exitDx=0;exitDy=0;exitPerimeter=0;" edge="1" parent="1" source="HAUtBb3B69CxN1LD46Y--43" target="HAUtBb3B69CxN1LD46Y--7">
          <mxGeometry width="160" relative="1" as="geometry">
            <mxPoint x="758.98" y="406" as="sourcePoint" />
            <mxPoint x="390" y="606.97" as="targetPoint" />
            <Array as="points" />
          </mxGeometry>
        </mxCell>
        <mxCell id="HAUtBb3B69CxN1LD46Y--46" value="Payment&amp;nbsp;&lt;div&gt;System&lt;/div&gt;" style="shape=umlActor;verticalLabelPosition=bottom;verticalAlign=top;html=1;" vertex="1" parent="1">
          <mxGeometry x="780" y="830" width="30" height="60" as="geometry" />
        </mxCell>
        <mxCell id="HAUtBb3B69CxN1LD46Y--47" value="" style="endArrow=open;endFill=1;endSize=12;html=1;rounded=0;exitX=0.25;exitY=0.1;exitDx=0;exitDy=0;exitPerimeter=0;entryX=0.993;entryY=0.371;entryDx=0;entryDy=0;entryPerimeter=0;" edge="1" parent="1" source="HAUtBb3B69CxN1LD46Y--46" target="HAUtBb3B69CxN1LD46Y--6">
          <mxGeometry width="160" relative="1" as="geometry">
            <mxPoint x="540" y="640" as="sourcePoint" />
            <mxPoint x="700" y="640" as="targetPoint" />
          </mxGeometry>
        </mxCell>
        <mxCell id="HAUtBb3B69CxN1LD46Y--48" value="" style="endArrow=open;endFill=1;endSize=12;html=1;rounded=0;exitX=0.25;exitY=0.1;exitDx=0;exitDy=0;exitPerimeter=0;" edge="1" parent="1" source="HAUtBb3B69CxN1LD46Y--46" target="HAUtBb3B69CxN1LD46Y--41">
          <mxGeometry width="160" relative="1" as="geometry">
            <mxPoint x="800" y="670" as="sourcePoint" />
            <mxPoint x="639" y="676" as="targetPoint" />
          </mxGeometry>
        </mxCell>
        <mxCell id="HAUtBb3B69CxN1LD46Y--49" value="&amp;lt;&amp;lt;includes&amp;gt;&amp;gt;" style="endArrow=open;endSize=12;dashed=1;html=1;rounded=0;exitX=1;exitY=0.5;exitDx=0;exitDy=0;entryX=0;entryY=0.5;entryDx=0;entryDy=0;" edge="1" parent="1" target="HAUtBb3B69CxN1LD46Y--50">
          <mxGeometry width="160" relative="1" as="geometry">
            <mxPoint x="400" y="930" as="sourcePoint" />
            <mxPoint x="550" y="870" as="targetPoint" />
            <Array as="points" />
          </mxGeometry>
        </mxCell>
        <mxCell id="HAUtBb3B69CxN1LD46Y--50" value="See Other Players Results" style="ellipse;whiteSpace=wrap;html=1;" vertex="1" parent="1">
          <mxGeometry x="505" y="980" width="140" height="70" as="geometry" />
        </mxCell>
        <mxCell id="HAUtBb3B69CxN1LD46Y--51" value="" style="rounded=0;whiteSpace=wrap;html=1;" vertex="1" parent="1">
          <mxGeometry x="20" y="1520" width="800" height="650" as="geometry" />
        </mxCell>
        <mxCell id="HAUtBb3B69CxN1LD46Y--52" value="" style="endArrow=none;html=1;rounded=0;exitX=-0.002;exitY=0.104;exitDx=0;exitDy=0;exitPerimeter=0;" edge="1" parent="1" source="HAUtBb3B69CxN1LD46Y--51">
          <mxGeometry width="50" height="50" relative="1" as="geometry">
            <mxPoint x="50" y="1596" as="sourcePoint" />
            <mxPoint x="824" y="1590" as="targetPoint" />
          </mxGeometry>
        </mxCell>
        <mxCell id="HAUtBb3B69CxN1LD46Y--53" value="&lt;font style=&quot;font-size: 14px;&quot;&gt;&lt;b&gt;Use Case: &lt;/b&gt;Battle&lt;/font&gt;" style="text;html=1;align=left;verticalAlign=middle;whiteSpace=wrap;rounded=0;" vertex="1" parent="1">
          <mxGeometry x="60" y="1540" width="580" height="30" as="geometry" />
        </mxCell>
        <mxCell id="HAUtBb3B69CxN1LD46Y--54" value="&lt;span style=&quot;font-size: 14px;&quot;&gt;&lt;font style=&quot;font-size: 14px;&quot;&gt;&lt;b&gt;Description: &lt;/b&gt;Battle to rise up military academy rank&lt;/font&gt;&lt;/span&gt;&lt;div style=&quot;font-size: 14px;&quot;&gt;&lt;font style=&quot;font-size: 14px;&quot;&gt;&lt;b&gt;Actors: &lt;/b&gt;Player&lt;/font&gt;&lt;/div&gt;&lt;div style=&quot;font-size: 14px;&quot;&gt;&lt;font style=&quot;font-size: 14px;&quot;&gt;&lt;b&gt;Precondition: &lt;/b&gt;Must be logged in&lt;/font&gt;&lt;/div&gt;&lt;div style=&quot;font-size: 14px;&quot;&gt;&lt;b style=&quot;&quot;&gt;&lt;font style=&quot;font-size: 14px;&quot;&gt;Main Success Scenario:&lt;/font&gt;&lt;/b&gt;&lt;/div&gt;" style="text;html=1;align=left;verticalAlign=middle;whiteSpace=wrap;rounded=0;" vertex="1" parent="1">
          <mxGeometry x="40" y="1600" width="710" height="90" as="geometry" />
        </mxCell>
        <mxCell id="HAUtBb3B69CxN1LD46Y--55" value="" style="endArrow=none;html=1;rounded=0;entryX=0.999;entryY=0.23;entryDx=0;entryDy=0;entryPerimeter=0;exitX=0;exitY=0.231;exitDx=0;exitDy=0;exitPerimeter=0;" edge="1" parent="1">
          <mxGeometry width="50" height="50" relative="1" as="geometry">
            <mxPoint x="20" y="1689.65" as="sourcePoint" />
            <mxPoint x="819.1999999999998" y="1689" as="targetPoint" />
          </mxGeometry>
        </mxCell>
        <mxCell id="HAUtBb3B69CxN1LD46Y--56" value="" style="endArrow=none;html=1;rounded=0;" edge="1" parent="1">
          <mxGeometry width="50" height="50" relative="1" as="geometry">
            <mxPoint x="16" y="1740" as="sourcePoint" />
            <mxPoint x="820" y="1740" as="targetPoint" />
          </mxGeometry>
        </mxCell>
        <mxCell id="HAUtBb3B69CxN1LD46Y--57" value="" style="endArrow=none;html=1;rounded=0;" edge="1" parent="1">
          <mxGeometry width="50" height="50" relative="1" as="geometry">
            <mxPoint x="400" y="1690" as="sourcePoint" />
            <mxPoint x="400" y="2020" as="targetPoint" />
          </mxGeometry>
        </mxCell>
        <mxCell id="HAUtBb3B69CxN1LD46Y--58" value="&lt;font style=&quot;font-size: 14px;&quot;&gt;&lt;b&gt;Player&lt;/b&gt;&lt;/font&gt;" style="text;html=1;align=center;verticalAlign=middle;whiteSpace=wrap;rounded=0;" vertex="1" parent="1">
          <mxGeometry x="40" y="1700" width="60" height="30" as="geometry" />
        </mxCell>
        <mxCell id="HAUtBb3B69CxN1LD46Y--59" value="System" style="text;html=1;align=center;verticalAlign=middle;whiteSpace=wrap;rounded=0;fontSize=14;fontStyle=1" vertex="1" parent="1">
          <mxGeometry x="450" y="1700" width="60" height="30" as="geometry" />
        </mxCell>
        <mxCell id="HAUtBb3B69CxN1LD46Y--60" value="The player joins a battle and is joined by other warships" style="text;html=1;align=left;verticalAlign=middle;whiteSpace=wrap;rounded=0;fontSize=14;" vertex="1" parent="1">
          <mxGeometry x="40" y="1760" width="310" height="30" as="geometry" />
        </mxCell>
        <mxCell id="HAUtBb3B69CxN1LD46Y--61" value="The system alerts player the warship has been spotted" style="text;html=1;align=left;verticalAlign=middle;whiteSpace=wrap;rounded=0;fontSize=14;" vertex="1" parent="1">
          <mxGeometry x="420" y="1770" width="310" height="30" as="geometry" />
        </mxCell>
        <mxCell id="HAUtBb3B69CxN1LD46Y--62" value="The player scans for the enemy on the map, spots them and starts shooting and launching missiles" style="text;html=1;align=left;verticalAlign=middle;whiteSpace=wrap;rounded=0;fontSize=14;" vertex="1" parent="1">
          <mxGeometry x="40" y="1810" width="310" height="30" as="geometry" />
        </mxCell>
        <mxCell id="HAUtBb3B69CxN1LD46Y--63" value="The system alerts player to the health status of the warship and what is happening with the crew on the ship" style="text;html=1;align=left;verticalAlign=middle;whiteSpace=wrap;rounded=0;fontSize=14;" vertex="1" parent="1">
          <mxGeometry x="435" y="1840" width="325" height="30" as="geometry" />
        </mxCell>
        <mxCell id="HAUtBb3B69CxN1LD46Y--64" value="The player defeats the enemy, scans for more enemies and manages to defeat them" style="text;html=1;align=left;verticalAlign=middle;whiteSpace=wrap;rounded=0;fontSize=14;" vertex="1" parent="1">
          <mxGeometry x="44" y="1880" width="310" height="30" as="geometry" />
        </mxCell>
        <mxCell id="HAUtBb3B69CxN1LD46Y--65" value="The system alerts player of the victory" style="text;html=1;align=left;verticalAlign=middle;whiteSpace=wrap;rounded=0;fontSize=14;" vertex="1" parent="1">
          <mxGeometry x="435" y="1900" width="325" height="30" as="geometry" />
        </mxCell>
        <mxCell id="HAUtBb3B69CxN1LD46Y--66" value="The system gives the player a reward and levels up the player" style="text;html=1;align=left;verticalAlign=middle;whiteSpace=wrap;rounded=0;fontSize=14;" vertex="1" parent="1">
          <mxGeometry x="435" y="1930" width="325" height="30" as="geometry" />
        </mxCell>
        <mxCell id="HAUtBb3B69CxN1LD46Y--67" value="The player looks at the statistics and performance of the team" style="text;html=1;align=left;verticalAlign=middle;whiteSpace=wrap;rounded=0;fontSize=14;" vertex="1" parent="1">
          <mxGeometry x="44" y="1970" width="325" height="30" as="geometry" />
        </mxCell>
        <mxCell id="HAUtBb3B69CxN1LD46Y--68" value="" style="endArrow=none;html=1;rounded=0;exitX=-0.002;exitY=0.297;exitDx=0;exitDy=0;exitPerimeter=0;" edge="1" parent="1">
          <mxGeometry width="50" height="50" relative="1" as="geometry">
            <mxPoint x="20" y="2020" as="sourcePoint" />
            <mxPoint x="822" y="2020" as="targetPoint" />
          </mxGeometry>
        </mxCell>
        <mxCell id="HAUtBb3B69CxN1LD46Y--69" value="&lt;font style=&quot;font-size: 14px;&quot;&gt;&lt;b&gt;Alternative&lt;/b&gt;:&lt;/font&gt;&lt;div style=&quot;font-size: 14px;&quot;&gt;&lt;font style=&quot;font-size: 14px;&quot;&gt;The player does not engage enemy and loses&lt;/font&gt;&lt;/div&gt;&lt;div style=&quot;font-size: 14px;&quot;&gt;&lt;font style=&quot;font-size: 14px;&quot;&gt;The player&#39;s team loses despite the player&#39;s effor&lt;/font&gt;&lt;/div&gt;" style="text;html=1;align=left;verticalAlign=middle;whiteSpace=wrap;rounded=0;" vertex="1" parent="1">
          <mxGeometry x="50" y="2040" width="710" height="40" as="geometry" />
        </mxCell>
        <mxCell id="HAUtBb3B69CxN1LD46Y--70" value="&lt;font style=&quot;font-size: 14px;&quot;&gt;&lt;b&gt;Exceptional&lt;/b&gt;:&lt;/font&gt;&lt;div style=&quot;font-size: 14px;&quot;&gt;&lt;font style=&quot;font-size: 14px;&quot;&gt;Connection loss during battle: The player&#39;s&amp;nbsp; connection to the server is lost&lt;/font&gt;&lt;/div&gt;&lt;div style=&quot;font-size: 14px;&quot;&gt;&lt;font style=&quot;font-size: 14px;&quot;&gt;Server crash: The battle abruptly ends for all players&lt;/font&gt;&lt;/div&gt;" style="text;html=1;align=left;verticalAlign=middle;whiteSpace=wrap;rounded=0;" vertex="1" parent="1">
          <mxGeometry x="50" y="2100" width="710" height="30" as="geometry" />
        </mxCell>
        <mxCell id="HAUtBb3B69CxN1LD46Y--72" value="&lt;font style=&quot;font-size: 14px;&quot;&gt;&lt;b&gt;Use Case: &lt;/b&gt;Join a clan&lt;/font&gt;" style="text;html=1;align=left;verticalAlign=middle;whiteSpace=wrap;rounded=0;" vertex="1" parent="1">
          <mxGeometry x="70" y="2500" width="580" height="30" as="geometry" />
        </mxCell>
        <mxCell id="HAUtBb3B69CxN1LD46Y--73" value="" style="endArrow=none;html=1;rounded=0;exitX=-0.002;exitY=0.104;exitDx=0;exitDy=0;exitPerimeter=0;" edge="1" source="HAUtBb3B69CxN1LD46Y--90" parent="1">
          <mxGeometry width="50" height="50" relative="1" as="geometry">
            <mxPoint x="60" y="2556" as="sourcePoint" />
            <mxPoint x="834" y="2550" as="targetPoint" />
          </mxGeometry>
        </mxCell>
        <mxCell id="HAUtBb3B69CxN1LD46Y--74" value="&lt;span style=&quot;font-size: 14px;&quot;&gt;&lt;font style=&quot;font-size: 14px;&quot;&gt;&lt;b&gt;Description: &lt;/b&gt;Join a clan and be part of a community&amp;nbsp;&lt;/font&gt;&lt;/span&gt;&lt;div style=&quot;font-size: 14px;&quot;&gt;&lt;font style=&quot;font-size: 14px;&quot;&gt;&lt;b&gt;Actors: &lt;/b&gt;Player&lt;/font&gt;&lt;/div&gt;&lt;div style=&quot;font-size: 14px;&quot;&gt;&lt;font style=&quot;font-size: 14px;&quot;&gt;&lt;b&gt;Precondition: &lt;/b&gt;Must be at the required minimum level to join&lt;/font&gt;&lt;/div&gt;&lt;div style=&quot;font-size: 14px;&quot;&gt;&lt;b style=&quot;&quot;&gt;&lt;font style=&quot;font-size: 14px;&quot;&gt;Main Success Scenario:&lt;/font&gt;&lt;/b&gt;&lt;/div&gt;" style="text;html=1;align=left;verticalAlign=middle;whiteSpace=wrap;rounded=0;" vertex="1" parent="1">
          <mxGeometry x="50" y="2560" width="710" height="90" as="geometry" />
        </mxCell>
        <mxCell id="HAUtBb3B69CxN1LD46Y--75" value="" style="endArrow=none;html=1;rounded=0;entryX=0.999;entryY=0.23;entryDx=0;entryDy=0;entryPerimeter=0;exitX=0;exitY=0.231;exitDx=0;exitDy=0;exitPerimeter=0;" edge="1" parent="1">
          <mxGeometry width="50" height="50" relative="1" as="geometry">
            <mxPoint x="30" y="2649.65" as="sourcePoint" />
            <mxPoint x="829.1999999999998" y="2649" as="targetPoint" />
          </mxGeometry>
        </mxCell>
        <mxCell id="HAUtBb3B69CxN1LD46Y--76" value="&lt;font style=&quot;font-size: 14px;&quot;&gt;&lt;b&gt;Player&lt;/b&gt;&lt;/font&gt;" style="text;html=1;align=center;verticalAlign=middle;whiteSpace=wrap;rounded=0;" vertex="1" parent="1">
          <mxGeometry x="50" y="2660" width="60" height="30" as="geometry" />
        </mxCell>
        <mxCell id="HAUtBb3B69CxN1LD46Y--77" value="System" style="text;html=1;align=center;verticalAlign=middle;whiteSpace=wrap;rounded=0;fontSize=14;fontStyle=1" vertex="1" parent="1">
          <mxGeometry x="460" y="2660" width="60" height="30" as="geometry" />
        </mxCell>
        <mxCell id="HAUtBb3B69CxN1LD46Y--78" value="The player navigates to the clan page" style="text;html=1;align=left;verticalAlign=middle;whiteSpace=wrap;rounded=0;fontSize=14;" vertex="1" parent="1">
          <mxGeometry x="51" y="2720" width="310" height="30" as="geometry" />
        </mxCell>
        <mxCell id="HAUtBb3B69CxN1LD46Y--79" value="The player selects a clan and views its details, like clan leader and rating" style="text;html=1;align=left;verticalAlign=middle;whiteSpace=wrap;rounded=0;fontSize=14;" vertex="1" parent="1">
          <mxGeometry x="50" y="2770" width="310" height="30" as="geometry" />
        </mxCell>
        <mxCell id="HAUtBb3B69CxN1LD46Y--80" value="The player requests to join a clan" style="text;html=1;align=left;verticalAlign=middle;whiteSpace=wrap;rounded=0;fontSize=14;" vertex="1" parent="1">
          <mxGeometry x="50" y="2800" width="310" height="30" as="geometry" />
        </mxCell>
        <mxCell id="HAUtBb3B69CxN1LD46Y--81" value="The system displays the list of recommended clans&amp;nbsp;" style="text;html=1;align=left;verticalAlign=middle;whiteSpace=wrap;rounded=0;fontSize=14;" vertex="1" parent="1">
          <mxGeometry x="430" y="2730" width="310" height="30" as="geometry" />
        </mxCell>
        <mxCell id="HAUtBb3B69CxN1LD46Y--82" value="Once the player is accepted, the system alerts the player the request has been approved" style="text;html=1;align=left;verticalAlign=middle;whiteSpace=wrap;rounded=0;fontSize=14;" vertex="1" parent="1">
          <mxGeometry x="435" y="2830" width="325" height="30" as="geometry" />
        </mxCell>
        <mxCell id="HAUtBb3B69CxN1LD46Y--84" value="" style="endArrow=none;html=1;rounded=0;" edge="1" parent="1">
          <mxGeometry width="50" height="50" relative="1" as="geometry">
            <mxPoint x="410" y="2650" as="sourcePoint" />
            <mxPoint x="410" y="2880" as="targetPoint" />
          </mxGeometry>
        </mxCell>
        <mxCell id="HAUtBb3B69CxN1LD46Y--85" value="" style="endArrow=none;html=1;rounded=0;" edge="1" parent="1">
          <mxGeometry width="50" height="50" relative="1" as="geometry">
            <mxPoint x="26" y="2700" as="sourcePoint" />
            <mxPoint x="830" y="2700" as="targetPoint" />
          </mxGeometry>
        </mxCell>
        <mxCell id="HAUtBb3B69CxN1LD46Y--86" value="&lt;div&gt;&lt;b&gt;Post-conditions:&lt;/b&gt;&lt;/div&gt;The player starts chatting with the clan members&lt;div&gt;The player participates in clan activities&lt;/div&gt;&lt;div&gt;The player is visible to other clan members&lt;/div&gt;" style="text;html=1;align=left;verticalAlign=middle;whiteSpace=wrap;rounded=0;fontSize=14;" vertex="1" parent="1">
          <mxGeometry x="50" y="3030" width="640" height="60" as="geometry" />
        </mxCell>
        <mxCell id="HAUtBb3B69CxN1LD46Y--87" value="" style="endArrow=none;html=1;rounded=0;exitX=-0.002;exitY=0.297;exitDx=0;exitDy=0;exitPerimeter=0;" edge="1" parent="1">
          <mxGeometry width="50" height="50" relative="1" as="geometry">
            <mxPoint x="30" y="2880" as="sourcePoint" />
            <mxPoint x="832" y="2880" as="targetPoint" />
          </mxGeometry>
        </mxCell>
        <mxCell id="HAUtBb3B69CxN1LD46Y--88" value="&lt;font style=&quot;font-size: 14px;&quot;&gt;&lt;b&gt;Alternative&lt;/b&gt;:&lt;/font&gt;&lt;div style=&quot;font-size: 14px;&quot;&gt;&lt;font style=&quot;font-size: 14px;&quot;&gt;The player&#39;s request is rejected by the clan leader&lt;/font&gt;&lt;/div&gt;&lt;div style=&quot;font-size: 14px;&quot;&gt;&lt;font style=&quot;font-size: 14px;&quot;&gt;The clan has reached its maximum limit&lt;/font&gt;&lt;/div&gt;" style="text;html=1;align=left;verticalAlign=middle;whiteSpace=wrap;rounded=0;" vertex="1" parent="1">
          <mxGeometry x="50" y="2900" width="710" height="40" as="geometry" />
        </mxCell>
        <mxCell id="HAUtBb3B69CxN1LD46Y--89" value="&lt;font style=&quot;font-size: 14px;&quot;&gt;&lt;b&gt;Exceptional&lt;/b&gt;:&lt;/font&gt;&lt;div style=&quot;font-size: 14px;&quot;&gt;&lt;font style=&quot;font-size: 14px;&quot;&gt;Clan disbands while player&#39;s request is pending&lt;/font&gt;&lt;/div&gt;&lt;div style=&quot;font-size: 14px;&quot;&gt;Player&#39;s account is flagged for misconduct&lt;/div&gt;" style="text;html=1;align=left;verticalAlign=middle;whiteSpace=wrap;rounded=0;" vertex="1" parent="1">
          <mxGeometry x="51" y="2950" width="710" height="60" as="geometry" />
        </mxCell>
        <mxCell id="HAUtBb3B69CxN1LD46Y--92" value="Manage Clan" style="ellipse;whiteSpace=wrap;html=1;" vertex="1" parent="1">
          <mxGeometry x="527.5" y="560" width="140" height="70" as="geometry" />
        </mxCell>
        <mxCell id="HAUtBb3B69CxN1LD46Y--93" value="Invite Player" style="ellipse;whiteSpace=wrap;html=1;" vertex="1" parent="1">
          <mxGeometry x="527.5" y="660" width="140" height="70" as="geometry" />
        </mxCell>
        <mxCell id="HAUtBb3B69CxN1LD46Y--94" value="" style="endArrow=open;endFill=1;endSize=12;html=1;rounded=0;entryX=0.775;entryY=0.114;entryDx=0;entryDy=0;entryPerimeter=0;exitX=0.25;exitY=0.1;exitDx=0;exitDy=0;exitPerimeter=0;" edge="1" parent="1" source="HAUtBb3B69CxN1LD46Y--43" target="HAUtBb3B69CxN1LD46Y--92">
          <mxGeometry width="160" relative="1" as="geometry">
            <mxPoint x="770" y="470" as="sourcePoint" />
            <mxPoint x="400" y="616.97" as="targetPoint" />
            <Array as="points" />
          </mxGeometry>
        </mxCell>
        <mxCell id="HAUtBb3B69CxN1LD46Y--95" value="" style="endArrow=open;endFill=1;endSize=12;html=1;rounded=0;entryX=1;entryY=0;entryDx=0;entryDy=0;exitX=0.25;exitY=0.1;exitDx=0;exitDy=0;exitPerimeter=0;" edge="1" parent="1" source="HAUtBb3B69CxN1LD46Y--43" target="HAUtBb3B69CxN1LD46Y--93">
          <mxGeometry width="160" relative="1" as="geometry">
            <mxPoint x="788" y="476" as="sourcePoint" />
            <mxPoint x="646" y="578" as="targetPoint" />
            <Array as="points" />
          </mxGeometry>
        </mxCell>
      </root>
    </mxGraphModel>
  </diagram>
</mxfile>
